<svg width="300" height="200" viewBox="0 0 300 200" fill="none" xmlns="http://www.w3.org/2000/svg">
<path d="M297.333 13.6297C295.667 12.4579 293.531 12.1708 291.615 12.8792L240.663 31.4095C234.346 33.7046 229.316 38.3312 226.502 44.4343C225.975 45.5786 225.629 46.7675 225.282 47.9546C216.532 45.4673 200.273 40.2724 184.114 31.9468C163.265 21.2012 145.618 22.5741 125.403 37.7733C117.276 37.9099 105.919 38.8872 94.7762 39.8693C87.7695 40.4874 81.1478 41.0564 75.7783 41.3839C75.6464 38.1589 74.8917 34.9585 73.4996 31.9351C70.6859 25.8313 65.6568 21.2048 59.3392 18.9102L8.38654 0.378742C6.47638 -0.323212 4.32774 -0.0360989 2.66778 1.12933C0.994924 2.3018 0 4.21195 0 6.25044V131.25C0 134.705 2.79551 137.501 6.25021 137.501H24.5057C32.27 137.501 39.4934 133.839 44.1628 127.925C46.6501 129.817 49.5962 132.032 52.6858 134.351C59.9796 139.839 67.963 145.826 71.4663 148.762C94.7393 168.244 122.718 189.283 128.29 192.945C133.496 196.363 142.871 200.001 150 200.001C152.789 200.001 159.815 200.001 164.747 195.832C169.831 197.828 175.312 197.73 180.408 195.484C185.492 193.244 189.606 189.021 191.999 183.887C196.881 184.888 202.49 184.155 207.575 181.604C212.341 179.218 215.851 175.604 217.731 171.381C222.247 171.796 227.069 170.325 231.384 167.023C237.549 162.31 240.373 155.35 239.574 148.484L255.428 139.713C260.071 146.007 267.45 150 275.494 150H293.75C297.204 150 300 147.204 300 143.75V18.7509C300.001 16.7118 299.006 14.8016 297.333 13.6297ZM223.798 157.093C221.68 158.717 218.714 159.62 217.396 158.302C217.328 158.235 217.224 158.241 217.155 158.177C217.035 158.066 216.976 157.917 216.847 157.813C212.379 154.285 192.359 133.802 179.987 120.899C177.601 118.403 173.64 118.311 171.156 120.71C168.66 123.097 168.574 127.052 170.966 129.542C173.87 132.573 197.181 156.851 206.511 165.342C205.814 168.087 203.27 169.781 201.978 170.429C197.975 172.437 193.8 172.102 192.237 170.649C192.191 170.606 192.121 170.608 192.074 170.566C191.997 170.498 191.963 170.402 191.883 170.338C184.387 164.35 165.583 144.367 161.328 139.741C158.99 137.195 155.042 137.037 152.496 139.369C149.958 141.707 149.786 145.662 152.124 148.201C152.329 148.423 170.758 168.302 181.109 177.536C180.092 180.458 178.019 182.879 175.36 184.052C173.398 184.924 170.329 185.371 166.822 182.78C157.847 175.17 139.834 155.996 136.292 152.204C133.942 149.677 129.975 149.549 127.46 151.905C124.939 154.261 124.805 158.217 127.161 160.737C131.361 165.233 143.775 178.39 153.212 187.3C152.158 187.428 151.051 187.501 150 187.501C145.862 187.501 138.751 184.859 135.157 182.496C130.774 179.615 103.259 159.083 79.4984 139.185C75.9037 136.17 67.7005 129.999 60.1929 124.36C56.1692 121.339 52.462 118.554 49.7298 116.453L73.131 54.0408C79.2054 53.7753 87.3037 53.0751 95.8742 52.3193C100.722 51.8921 105.573 51.4755 110.21 51.1146C103.084 58.4271 92.4875 71.5357 93.8844 83.8193C94.5254 89.4104 97.5834 94.0674 102.741 97.2901C105.671 99.1211 109.284 100.049 113.471 100.049C122.352 100.049 134.12 95.6236 140.967 87.1211C146.845 86.2727 150.812 84.7715 155.146 82.6228C162.47 89.5076 172.291 97.6012 182.606 106.103C200.563 120.898 220.918 137.671 226.301 147.076C229.297 152.308 225.141 156.068 223.798 157.093Z" fill="url(#paint0_linear)"/>
<defs>
<linearGradient id="paint0_linear" x1="321.094" y1="19.9219" x2="-9.37501" y2="73.8283" gradientUnits="userSpaceOnUse">
<stop offset="0.0731504" stop-color="#1A69B4"/>
<stop offset="1" stop-color="white"/>
</linearGradient>
</defs>
</svg>
