<svg width="252" height="147" viewBox="0 0 252 147" fill="none" xmlns="http://www.w3.org/2000/svg">
<path d="M12.2022 37.7728C12.4812 36.9156 12.9529 36.4371 13.7105 36.0516C14.468 35.6662 15.4183 35.6595 15.9898 35.8455C16.2755 35.9385 16.847 36.1245 17.0397 36.5033C17.3255 36.5963 17.5182 36.9751 17.7109 37.3538C18.4819 38.8689 17.9238 40.5833 16.4088 41.3543C16.03 41.547 15.6512 41.7398 15.3655 41.6467C15.0797 41.5537 14.4153 41.6535 14.1295 41.5604C13.2723 41.2814 12.7938 40.8096 12.4083 40.0521C12.0228 39.2946 11.9231 38.6301 12.2022 37.7728Z" fill="#064d90"/>
<path d="M18.4292 44.8562C19.9442 44.0852 21.7517 44.3576 22.5227 45.8726C23.2936 47.3877 23.0213 49.1951 21.5062 49.9661C19.9912 50.737 18.1837 50.4647 17.4127 48.9497C17.0273 48.1921 16.7348 47.1489 17.0138 46.2916C17.4856 45.8131 17.9574 45.3347 18.4292 44.8562ZM24.1911 53.3682C25.5134 52.2185 27.3209 52.4908 28.4706 53.8132C29.6203 55.1355 29.348 56.943 28.0257 58.0927C26.7034 59.2424 24.8959 58.97 23.7462 57.6477C23.075 56.7972 23.0682 55.8469 23.3473 54.9897C23.2476 54.3252 23.4336 53.7537 24.1911 53.3682ZM30.4248 61.4018C31.7471 60.2521 33.6476 60.2387 34.7973 61.561C35.947 62.8833 35.6747 64.6908 34.6382 65.9335C33.3158 67.0832 31.5083 66.8109 30.2656 65.7743C29.5944 64.9238 29.3019 63.8805 29.674 62.7375C29.5743 62.073 30.046 61.5945 30.4248 61.4018ZM37.2233 68.6711C38.2599 67.4284 40.1604 67.415 41.4031 68.4515C42.6458 69.4881 42.6592 71.3886 41.6227 72.6313C40.5861 73.874 38.6856 73.8875 37.4429 72.8509C36.4859 71.9074 36.1934 70.8641 36.5655 69.7211C36.6585 69.4353 37.1303 68.9569 37.2233 68.6711ZM44.8723 75.2692C45.9089 74.0265 47.9024 73.7273 49.1451 74.7639C50.3878 75.8005 50.687 77.794 49.6505 79.0367C48.6139 80.2794 46.6204 80.5786 45.3776 79.542C44.3277 78.8842 43.8425 77.4622 44.2145 76.3192C44.3075 76.0335 44.7793 75.555 44.8723 75.2692ZM52.9931 81.3888C54.0297 80.1461 55.8305 79.4682 57.0732 80.5048C58.4089 81.2556 58.9938 83.3421 57.9573 84.5848C57.2065 85.9205 55.1199 86.5055 53.8772 85.4689C52.8272 84.8111 52.342 83.3891 52.8071 81.9603C52.8071 81.9603 52.9001 81.6746 52.9931 81.3888ZM61.6787 86.7442C62.4295 85.4085 64.2303 84.7306 65.8518 85.5744C67.1875 86.3252 67.8655 88.126 67.1146 89.4617C66.3638 90.7975 64.563 91.4754 62.9416 90.6316C61.6058 89.8808 61.1206 88.4587 61.5857 87.03C61.3 86.937 61.3 86.937 61.6787 86.7442ZM70.6433 91.2424C71.1084 89.8136 73.0022 88.85 74.6237 89.6938C75.9594 90.4446 77.0161 92.0527 76.1723 93.6741C75.4215 95.0099 73.8134 96.0666 72.1919 95.2227C70.7632 94.7577 70.0853 92.9569 70.6433 91.2424C70.5503 91.5281 70.5503 91.5281 70.6433 91.2424ZM83.6746 92.9559C85.1033 93.421 86.16 95.029 85.602 96.7435C85.0439 98.458 83.5288 99.229 81.8144 98.6709C80.0999 98.1128 79.3289 96.5978 79.887 94.8833C80.3521 93.4545 82.2459 92.4909 83.6746 92.9559ZM102.072 47.1164C103.786 47.6745 104.464 49.4752 103.999 50.904C103.441 52.6185 101.926 53.3894 100.212 52.8313C98.4971 52.2733 97.8192 50.4725 98.2843 49.0437C98.8423 47.3293 100.643 46.6513 102.072 47.1164ZM100.145 56.9181C101.853 56.5259 103.289 57.9413 103.395 59.556C103.502 61.1708 102.372 62.6993 100.757 62.8057C99.1425 62.9121 97.614 61.7825 97.5075 60.1678C97.3148 59.789 97.5008 59.2175 97.5938 58.9318C97.8729 58.0745 98.8164 57.1176 100.145 56.9181ZM104.869 39.4942C106.191 38.3445 107.999 38.6168 109.148 39.9391C110.298 41.2614 110.026 43.0689 108.989 44.3116C107.667 45.4614 105.859 45.189 104.617 44.1525C103.946 43.3019 103.653 42.2587 104.025 41.1157C104.018 40.1654 104.49 39.6869 104.869 39.4942ZM93.0046 95.3608C94.5263 95.5401 95.583 97.1482 95.4037 98.67C95.2244 100.192 93.5233 101.534 92.0946 101.069C90.5728 100.89 89.5161 99.2817 89.6954 97.76L89.7885 97.4742C90.2535 96.0455 91.5758 94.8958 93.0046 95.3608ZM102.306 66.786C103.821 66.0151 105.535 66.5732 106.306 68.0882C107.077 69.6032 106.519 71.3177 105.004 72.0887C103.489 72.8596 101.775 72.3015 101.004 70.7865C100.618 70.029 100.518 69.3645 100.797 68.5072C100.984 67.9357 101.548 67.1715 102.306 66.786ZM114.903 33.9116C116.611 33.5194 118.232 34.3632 118.624 36.071C119.016 37.7788 118.173 39.4002 116.465 39.7924C114.757 40.1846 113.136 39.3408 112.743 37.633C112.644 36.9685 112.544 36.304 112.637 36.0182C112.916 35.161 113.859 34.204 114.903 33.9116ZM106.931 75.8763C108.161 75.0123 110.061 74.9989 111.118 76.607C112.268 77.9293 111.995 79.7368 110.673 80.8865C109.351 82.0362 107.257 81.6708 106.487 80.1558C105.815 79.3053 105.809 78.355 106.088 77.4978C106.081 76.5475 106.553 76.069 106.931 75.8763ZM102.8 96.337C104.414 96.2306 105.85 97.6459 105.863 99.5464C105.97 101.161 104.554 102.597 102.654 102.61C101.039 102.716 99.6036 101.301 99.4972 99.6864C99.5902 99.4006 99.3975 99.0219 99.4905 98.7361C100.334 97.1146 101.278 96.1577 102.8 96.337ZM125.92 33.0735C127.442 33.2528 128.878 34.6682 128.605 36.4757C128.426 37.9974 126.725 39.3398 125.203 39.1605C123.681 38.9812 122.246 37.5659 122.518 35.7584C122.611 35.4726 122.611 35.4726 122.704 35.1869C123.169 33.7582 124.684 32.9872 125.92 33.0735ZM113.258 83.6241C114.58 82.4744 116.481 82.461 117.345 83.6903C118.495 85.0126 118.508 86.9131 117.186 88.0628C115.863 89.2125 113.963 89.2259 113.099 87.9966C112.142 87.0531 112.135 86.1028 112.507 84.9598C112.693 84.3883 113.165 83.9098 113.258 83.6241ZM112.202 95.6054C113.91 95.2132 115.439 96.3428 115.831 98.0505C116.223 99.7583 115.093 101.287 113.479 101.393C111.771 101.785 110.242 100.656 109.85 98.9481C109.751 98.2835 109.844 97.9978 110.03 97.4263C110.309 96.5691 111.252 95.6121 112.202 95.6054ZM132.606 37.7778C133.357 36.4421 135.35 36.1429 136.686 36.8937C137.928 37.9303 138.606 39.7311 137.57 40.9738C136.819 42.3095 134.733 42.8944 133.49 41.8579C132.154 41.1071 131.669 39.685 132.134 38.2563C132.42 38.3493 132.513 38.0636 132.606 37.7778ZM120.721 90.7937C121.758 89.551 123.751 89.2518 124.994 90.2884C126.237 91.3249 126.536 93.3185 125.499 94.5612C126.27 96.0762 125.333 97.9834 123.911 98.4686C122.396 99.2396 120.775 98.3957 120.004 96.8807C119.711 95.8374 119.798 94.6014 120.363 93.8372C119.977 93.0797 119.877 92.4152 120.156 91.5579C120.249 91.2722 120.342 90.9864 120.721 90.7937ZM140.633 44.1832C142.149 43.4123 143.956 43.6846 144.727 45.1996C145.591 46.4289 145.226 48.5222 143.711 49.2931C142.196 50.0641 140.388 49.7917 139.524 48.5624C138.853 47.7119 138.846 46.7616 139.125 45.9044C139.404 45.0472 139.876 44.5687 140.633 44.1832ZM129.732 88.3543C130.961 87.4903 133.054 87.8557 133.918 89.085C134.782 90.3143 134.417 92.4075 133.188 93.2715C131.958 94.1354 129.865 93.7701 129.001 92.5408C128.33 91.6903 128.323 90.74 128.602 89.8828C128.788 89.3113 129.26 88.8328 129.732 88.3543ZM128.463 97.1061C129.5 95.8633 131.208 95.4712 132.829 96.315C134.072 97.3515 134.464 99.0593 133.62 100.681C132.584 101.924 130.876 102.316 129.54 101.565C128.49 100.907 128.005 99.4851 128.47 98.0563C128.277 97.6775 128.37 97.3918 128.463 97.1061ZM145.352 52.9877C147.06 52.5955 148.681 53.4393 149.074 55.1471C149.466 56.8549 148.336 58.3834 146.628 58.7755C144.921 59.1677 143.392 58.0382 142.907 56.6161C143.093 56.0446 142.993 55.3801 143.179 54.8086C143.458 53.9514 144.309 53.2802 145.352 52.9877ZM136.529 82.0343C137.566 80.7916 139.559 80.4924 140.709 81.8147C141.952 82.8513 142.251 84.8448 140.929 85.9945C139.892 87.2372 137.899 87.5364 136.749 86.2141C135.792 85.2705 135.5 84.2273 135.872 83.0843C136.25 82.8915 136.343 82.6058 136.529 82.0343ZM147.134 63.0483C148.656 63.2277 150.091 64.643 149.912 66.1647C149.732 67.6865 148.317 69.1219 146.51 68.8496C144.988 68.6703 143.552 67.255 143.732 65.7332C143.825 65.4475 143.918 65.1617 143.918 65.1617C144.383 63.733 145.612 62.869 147.134 63.0483ZM141.513 74.4917C142.357 72.8702 143.872 72.0993 145.493 72.9431C146.922 73.4082 147.6 75.2089 147.042 76.9234C146.198 78.5449 144.397 79.2228 143.061 78.472C141.726 77.7212 140.955 76.2062 141.513 74.4917C141.513 74.4917 141.42 74.7774 141.513 74.4917ZM136.77 102.654C137.521 101.318 139.322 100.641 140.943 101.484C142.279 102.235 142.957 104.036 142.113 105.657C141.362 106.993 139.561 107.671 137.94 106.827C136.604 106.076 136.119 104.654 136.584 103.226C136.677 102.94 136.77 102.654 136.77 102.654ZM145.927 107.531C146.678 106.195 148.193 105.424 149.908 105.982C151.243 106.733 152.014 108.248 151.456 109.963C150.706 111.299 148.905 111.976 147.476 111.511C146.14 110.761 145.369 109.246 145.834 107.817C145.549 107.724 145.642 107.438 145.927 107.531ZM155.078 111.458C155.543 110.029 157.437 109.065 158.866 109.53C160.58 110.088 161.258 111.889 160.793 113.318C160.235 115.032 158.434 115.71 157.005 115.245C155.291 114.687 154.52 113.172 155.078 111.458ZM168.388 112.314C169.817 112.779 170.874 114.387 170.694 115.909C170.136 117.623 168.621 118.394 167.1 118.215C165.385 117.657 164.614 116.142 164.794 114.62C164.794 114.62 164.794 114.62 164.887 114.334C165.352 112.906 166.867 112.135 168.388 112.314ZM178.097 114.526C179.619 114.706 180.961 116.407 180.496 117.835C180.317 119.357 178.616 120.7 177.187 120.234C175.665 120.055 174.609 118.447 174.788 116.925L174.881 116.64C175.06 115.118 176.575 114.347 178.097 114.526ZM187.799 115.788C189.321 115.967 190.756 117.383 190.577 118.905C190.398 120.426 188.982 121.862 187.461 121.682C185.939 121.503 184.503 120.088 184.683 118.566C184.776 118.28 184.869 117.995 184.869 117.995C185.048 116.473 186.277 115.609 187.799 115.788ZM197.587 115.814C199.202 115.708 200.638 117.123 200.744 118.738C200.758 120.638 199.342 122.074 197.82 121.894C196.206 122.001 194.77 120.585 194.664 118.971C194.757 118.685 194.564 118.306 194.657 118.02C195.029 116.877 196.258 116.013 197.587 115.814ZM207.562 115.268C209.177 115.162 210.705 116.292 210.811 117.906C210.918 119.521 209.788 121.05 208.174 121.156C206.559 121.262 205.03 120.133 204.924 118.518C204.731 118.139 204.824 117.854 204.917 117.568C205.289 116.425 206.233 115.468 207.562 115.268Z" fill="#064d90"/>
<path d="M214.978 115.786C215.257 114.929 215.729 114.451 216.486 114.065C217.244 113.68 217.908 113.58 218.766 113.859C219.623 114.138 220.101 114.61 220.487 115.367C221.258 116.882 220.7 118.597 219.185 119.368C218.427 119.753 217.763 119.853 216.905 119.574C216.048 119.295 215.57 118.823 215.184 118.066C214.799 117.308 214.699 116.643 214.978 115.786Z" fill="#064d90"/>
<path d="M216.008 98.3522L213.504 102.112L231.938 115.111L217.746 132.63L221.14 135.612L238.679 114.221L216.008 98.3522Z" fill="#064d90"/>
</svg>
