<svg width="166" height="104" viewBox="0 0 166 104" fill="none" xmlns="http://www.w3.org/2000/svg">
<path d="M146.083 89.0918C144.209 89.9984 142.172 88.7394 141.621 86.8973C141.07 85.0552 141.973 82.9856 143.815 82.4345C145.657 81.8835 147.727 82.7869 148.278 84.629C148.601 85.0166 148.537 85.7278 148.505 86.0834C148.022 87.4739 147.214 88.4766 146.083 89.0918ZM141.387 77.5554C139.512 78.4621 137.443 77.5587 136.504 76.0401C135.597 74.166 136.501 72.0964 138.019 71.1577C139.894 70.251 141.963 71.1544 142.902 72.6729C143.193 73.4162 143.161 73.7718 143.097 74.483C143.325 75.9375 142.517 76.9402 141.387 77.5554ZM135.559 66.6341C134.04 67.5729 131.583 66.993 130.644 65.4745C129.706 63.956 130.285 61.4987 131.804 60.56C133.323 59.6213 135.78 60.2011 136.718 61.7197C137.01 62.4629 137.302 63.2062 137.238 63.9174C137.141 64.9842 136.334 65.987 135.559 66.6341ZM128.632 55.9724C127.082 57.2667 124.98 56.719 123.686 55.1684C122.391 53.6178 122.584 51.4842 124.49 50.2219C126.04 48.9276 128.142 49.4753 129.436 51.0259C130.083 51.8012 130.375 52.5444 130.279 53.6113C129.859 54.2905 129.408 55.3253 128.632 55.9724ZM120.898 46.3135C119.348 47.6078 117.214 47.4156 115.888 46.2207C114.593 44.6701 114.786 42.5365 115.981 41.2101C117.531 39.9158 119.697 39.7523 120.991 41.3029C121.638 42.0782 121.898 43.177 121.834 43.8883C121.77 44.5995 121.674 45.6663 120.898 46.3135ZM112.034 37.2697C110.807 38.9516 108.673 38.7594 106.991 37.5325C105.309 36.3055 105.178 33.7842 106.728 32.4899C107.923 31.1635 110.444 31.0321 111.771 32.2271C112.773 33.0344 113.033 34.1332 112.937 35.2001C112.873 35.9113 112.809 36.6225 112.034 37.2697ZM102.717 29.2606C101.49 30.9426 99.3244 31.106 97.6104 30.2347C95.9284 29.0077 95.765 26.842 96.6364 25.128C97.8633 23.4461 100.029 23.2826 101.743 24.154C102.746 24.9613 103.361 26.0922 103.233 27.5146C103.169 28.2258 102.781 28.5494 102.717 29.2606ZM92.2376 22.2224C91.3663 23.9364 89.1685 24.4554 87.4545 23.584C85.7406 22.7127 85.2215 20.515 86.0929 18.801C86.9642 17.087 89.162 16.5679 90.8759 17.4393C92.2664 17.923 92.8495 19.4095 92.7214 20.832C92.6893 21.1876 92.6573 21.5432 92.2376 22.2224ZM81.3065 16.2189C80.4351 17.9329 78.2054 18.8075 76.4914 17.9362C74.7774 17.0648 73.8707 15.1907 74.7741 13.1211C75.6455 11.4071 77.8752 10.5324 79.5892 11.4038C80.9796 11.8875 81.9184 13.406 81.7902 14.8285C81.3706 15.5077 81.3385 15.8633 81.3065 16.2189ZM69.5681 11.2182C69.0523 12.9642 66.7906 14.1945 65.0445 13.6787C63.2985 13.163 62.0683 10.9012 62.584 9.15517C63.0998 7.40915 65.3615 6.17888 67.1076 6.69464C68.8536 7.2104 69.7923 8.72892 69.6321 10.507C69.9557 10.8946 69.9237 11.2502 69.5681 11.2182ZM57.7016 7.63993C57.1538 9.74156 55.2796 10.6482 53.5016 10.4881C51.7556 9.97234 50.4933 8.06618 50.6534 6.28813C51.2012 4.1865 53.0753 3.27981 54.8534 3.43996C56.5994 3.95572 57.8937 5.50627 57.7336 7.28432L57.7016 7.63993ZM45.3833 5.09647C45.1912 7.23013 43.285 8.49243 41.5069 8.33228C39.7289 8.17214 38.111 6.23394 38.2711 4.45589C38.4313 2.67784 40.3695 1.05994 42.1475 1.22008C44.2812 1.41226 45.5435 3.31842 45.3833 5.09647ZM29.3842 7.5989C27.6061 7.43875 25.9562 5.85617 25.7607 4.04609C25.9209 2.26804 27.5035 0.618102 29.3135 0.422638C31.0916 0.582784 32.7415 2.16537 32.937 3.97545C32.937 3.97545 32.937 3.97545 32.9049 4.33106C32.7448 6.10911 31.1942 7.40343 29.3842 7.5989ZM17.1973 7.57674C15.0317 7.74017 13.3817 6.15758 13.1863 4.3475C12.9908 2.53743 14.5734 0.887498 16.3835 0.692034C18.1935 0.496569 20.1991 2.11118 20.0389 3.88923C20.0069 4.24484 20.0069 4.24484 19.9749 4.60045C20.2024 6.05492 18.9754 7.73688 17.1973 7.57674Z" fill="#064d90"/>
<path d="M8.01555 6.03273C7.91946 7.09956 7.49979 7.77875 6.72451 8.42591C5.94923 9.07307 5.20599 9.36462 4.13916 9.26854C3.78355 9.23651 3.78355 9.23651 3.42794 9.20448C3.07233 9.17245 3.07233 9.17245 2.74874 8.78481C2.39313 8.75278 2.39313 8.75278 2.06955 8.36515C1.71394 8.33312 1.74597 7.9775 1.74597 7.9775C1.39036 7.94548 1.42239 7.58986 1.45442 7.23425C1.48645 6.87864 1.13084 6.84662 1.16287 6.49101C1.1949 6.1354 1.1949 6.1354 0.871317 5.74776C0.611795 4.6489 1.09552 3.25849 2.22641 2.64336C3.00169 1.99619 3.74494 1.70464 4.81177 1.80073C5.8786 1.89681 6.55779 2.31649 7.20495 3.09176C7.82008 4.22265 8.11163 4.9659 8.01555 6.03273Z" fill="#064d90"/>
<path d="M165.305 74.6908L160.519 72.1087L147.996 95.7169L125.259 81.4802L122.354 85.879L150.168 103.441L165.305 74.6908Z" fill="#064d90"/>
</svg>
